<svg width="280" height="280" viewBox="0 0 280 280" fill="none" xmlns="http://www.w3.org/2000/svg">
<path d="M280 214.145H0V214.285H280V214.145Z" fill="#EBEBEB"/>
<path d="M251.943 223.156H233.395V223.296H251.943V223.156Z" fill="#EBEBEB"/>
<path d="M185.481 224.676H180.613V224.816H185.481V224.676Z" fill="#EBEBEB"/>
<path d="M232.837 217.957H222.09V218.097H232.837V217.957Z" fill="#EBEBEB"/>
<path d="M53.567 218.898H29.3789V219.038H53.567V218.898Z" fill="#EBEBEB"/>
<path d="M62.0973 218.898H58.5508V219.038H62.0973V218.898Z" fill="#EBEBEB"/>
<path d="M126.084 221.262H73.625V221.402H126.084V221.262Z" fill="#EBEBEB"/>
<path d="M132.726 189.168H24.591C22.8287 189.168 21.3945 187.734 21.3945 185.972V33.9699C21.3945 32.2076 22.8287 30.7734 24.591 30.7734H132.726C134.488 30.7734 135.922 32.2076 135.922 33.9699V185.972C135.922 187.734 134.488 189.168 132.726 189.168ZM24.591 30.914C22.9054 30.914 21.5345 32.2849 21.5345 33.9705V185.972C21.5345 187.658 22.9054 189.029 24.591 189.029H132.726C134.411 189.029 135.782 187.658 135.782 185.972V33.9699C135.782 32.2849 134.411 30.9134 132.726 30.9134L24.591 30.914Z" fill="#EBEBEB"/>
<path d="M253.854 189.168H145.719C143.957 189.168 142.523 187.734 142.523 185.972V33.9699C142.523 32.2076 143.958 30.7734 145.719 30.7734H253.854C255.617 30.7734 257.051 32.2076 257.051 33.9699V185.972C257.051 187.734 255.617 189.168 253.854 189.168ZM145.719 30.914C144.034 30.914 142.663 32.2849 142.663 33.9705V185.972C142.663 187.658 144.034 189.029 145.719 189.029H253.854C255.54 189.029 256.911 187.658 256.911 185.972V33.9699C256.911 32.2849 255.54 30.9134 253.854 30.9134L145.719 30.914Z" fill="#EBEBEB"/>
<path d="M82.2448 162.734H42.3711V212.573H82.2448C86.1015 212.573 89.2565 209.418 89.2565 205.561V169.747C89.2565 165.89 86.1009 162.734 82.2448 162.734Z" fill="#F0F0F0"/>
<path d="M42.6993 162.734H42.0391C38.1824 162.734 35.0273 165.889 35.0273 169.746V205.561C35.0273 209.418 38.1824 212.573 42.0391 212.573H42.6993C46.5561 212.573 49.7111 209.417 49.7111 205.561V169.746C49.7111 165.89 46.5561 162.734 42.6993 162.734Z" fill="#F5F5F5"/>
<path d="M47.7086 212.57H99.75V181.115H47.7086L47.7086 212.57Z" fill="#F0F0F0"/>
<path d="M43.4336 214.143H137.227C138.021 214.143 138.665 213.499 138.665 212.705V212.57H82.2635L41.9961 212.705C41.9961 213.499 42.6395 214.143 43.4336 214.143Z" fill="#E0E0E0"/>
<path d="M84.515 142.055H132.935C138.336 142.055 142.33 146.433 141.857 151.833L138.665 188.228H70.6875L73.8789 151.833C74.3527 146.433 79.1144 142.055 84.515 142.055Z" fill="#E0E0E0"/>
<path d="M76.8638 142.055H126.227C131.367 142.055 135.169 146.222 134.718 151.362L131.485 188.228H63.5078L66.7407 151.362C67.1909 146.222 71.7236 142.055 76.8638 142.055Z" fill="#F5F5F5"/>
<path d="M51.8779 178.242H93.0995C95.5378 178.242 97.5146 180.219 97.5146 182.657V186.638C97.5146 189.076 95.5378 191.053 93.0995 191.053H51.8779C48.3404 191.053 45.4727 188.185 45.4727 184.647C45.4727 181.11 48.3404 178.242 51.8779 178.242Z" fill="#E0E0E0"/>
<path d="M139.85 162.734H99.9766V212.573H139.85C143.707 212.573 146.862 209.418 146.862 205.561V169.747C146.862 165.89 143.707 162.734 139.85 162.734Z" fill="#F0F0F0"/>
<path d="M100.305 162.734H99.6446C95.7879 162.734 92.6328 165.889 92.6328 169.746V205.561C92.6328 209.418 95.7884 212.573 99.6446 212.573H100.305C104.162 212.573 107.317 209.417 107.317 205.561V169.746C107.317 165.89 104.161 162.734 100.305 162.734Z" fill="#F5F5F5"/>
<path d="M210.011 135.336H171.676V214.146H210.011V135.336Z" fill="#F0F0F0"/>
<path d="M177.406 208.005V141.473H176.523V208.005H177.406Z" fill="#E6E6E6"/>
<path d="M204.357 141.473H176.523V142.592H204.357V141.473Z" fill="#E6E6E6"/>
<path d="M249.229 135.336H210.895V214.146H249.229V135.336Z" fill="#F0F0F0"/>
<path d="M249.231 214.145H254.305V135.335H249.231V214.145Z" fill="#E0E0E0"/>
<path d="M216.625 208.009V141.477H215.741V208.009H216.625Z" fill="#E6E6E6"/>
<path d="M210.895 214.145L210.895 136.23H210.011L210.011 214.145H210.895Z" fill="#E6E6E6"/>
<path d="M243.575 141.477H215.742V142.596H243.575V141.477Z" fill="#E6E6E6"/>
<path d="M208.331 152.773H206.426V170.188H208.331V152.773Z" fill="#E0E0E0"/>
<path d="M214.479 152.773H212.574V170.188H214.479V152.773Z" fill="#E0E0E0"/>
<path d="M238.625 53.1562H43.1719V122.869H238.625V53.1562Z" fill="#E0E0E0"/>
<path d="M236.832 53.1562H41.3789V122.869H236.832V53.1562Z" fill="#F0F0F0"/>
<path d="M230.969 117.005V59.0195L47.2434 59.0195V117.005L230.969 117.005Z" fill="#FAFAFA"/>
<path d="M77.0664 117.005L89.2436 59.0195H116.119L103.942 117.005H77.0664Z" fill="white"/>
<path d="M115.281 117.005L127.458 59.0195H140.896L128.719 117.005H115.281Z" fill="white"/>
<path d="M197.332 117.005L209.509 59.0195H222.946L210.77 117.005H197.332Z" fill="white"/>
<path d="M140 239.436C199.966 239.436 248.578 236.597 248.578 233.095C248.578 229.593 199.966 226.754 140 226.754C80.0338 226.754 31.4219 229.593 31.4219 233.095C31.4219 236.597 80.0338 239.436 140 239.436Z" fill="#F5F5F5"/>
<path d="M92.9643 64.7607C94.375 61.525 81.8746 58.5822 78.0946 68.553C74.6691 77.5891 68.979 79.893 71.6547 86.1488C74.5515 92.9225 90.9326 93.734 98.0463 86.2272C103.813 80.1422 97.5485 77.5785 98.3571 71.8536C99.1663 66.1299 97.4651 64.2628 92.9643 64.7607Z" fill="#263238"/>
<path d="M70.1896 84.1448C69.5395 80.6173 70.8482 79.1619 72.5052 77.3195C74.0167 75.6384 75.8982 73.5468 76.9281 69.0516C77.7636 65.406 80.2556 63.021 83.9455 62.3372C87.6387 61.6518 91.5547 62.8597 92.5885 64.3975C92.9284 64.9032 92.9491 65.4413 92.6467 65.9128L92.1752 65.6104C92.3572 65.3265 92.3404 65.032 92.1237 64.71C91.2058 63.3452 87.4779 62.2521 84.0474 62.8883C81.6024 63.3419 78.4771 64.8007 77.4741 69.1776C76.4112 73.8139 74.4764 75.9654 72.9218 77.6947C71.3074 79.4906 70.1409 80.7876 70.7406 84.0445L70.1896 84.1448Z" fill="#263238"/>
<path d="M62.4882 81.4629L62.1388 80.3474C61.9008 79.5875 61.4684 78.9026 60.8838 78.3616L59.7823 77.3419C59.0526 76.6665 57.9449 76.6077 57.148 77.2024L55.9457 78.1007C55.0245 78.7883 54.8436 80.0965 55.5436 81.0082L56.3192 82.0184C56.3192 82.0184 58.1297 85.0839 60.7567 86.1495L61.3615 85.6332C61.3716 85.6248 61.3811 85.6164 61.3912 85.608C62.5604 84.5922 62.9508 82.9402 62.4882 81.4629Z" fill="#FFC3BD"/>
<path d="M84.2563 100.903L83.8979 101.177L83.6073 101.39L83.0445 101.782C82.6699 102.029 82.2935 102.26 81.9133 102.482C81.1534 102.925 80.3683 103.314 79.5613 103.674C77.9429 104.375 76.2147 104.921 74.3824 105.215C72.5579 105.529 70.6142 105.55 68.6889 105.25C67.7274 105.096 66.772 104.857 65.8547 104.518C65.6223 104.443 65.3978 104.349 65.1727 104.255L64.8355 104.114L64.6675 104.043L64.4816 103.961L64.2492 103.85C63.659 103.546 63.2227 103.201 62.9069 102.903C62.5715 102.592 62.3335 102.31 62.119 102.038C61.3109 100.973 60.9531 100.104 60.5969 99.266C60.2615 98.4333 60.0033 97.6426 59.7731 96.8636C59.3431 95.3012 59.0115 93.7965 58.7595 92.2873C58.2488 89.2711 57.9576 86.3199 57.9027 83.2724C57.8798 82.0208 58.876 80.9876 60.1276 80.9652C61.1205 80.9473 61.9762 81.5706 62.2987 82.4548L62.32 82.5153C63.2933 85.1983 64.2319 87.9439 65.218 90.5552C65.7243 91.8561 66.2182 93.1463 66.7787 94.3223C67.0459 94.9115 67.3264 95.4748 67.6098 95.9598C67.878 96.433 68.2129 96.8591 68.3221 96.9275C68.3411 96.9342 68.3473 96.9235 68.2863 96.8524C68.2375 96.8015 68.1037 96.6654 67.8377 96.5254L67.7291 96.4711C67.6988 96.4565 67.6305 96.4313 67.6686 96.4431L67.7576 96.4649L67.9346 96.5097C68.0516 96.5405 68.167 96.5741 68.2874 96.5915C68.7561 96.7018 69.2394 96.7281 69.7187 96.7645C70.6847 96.8132 71.6849 96.69 72.717 96.4503C73.744 96.1972 74.8018 95.8321 75.8395 95.3432C76.3626 95.1103 76.875 94.8353 77.3784 94.557C77.6315 94.4187 77.8768 94.2708 78.1143 94.1252L78.6983 93.7629L79.1357 93.4913C81.2519 92.1781 84.0318 92.8288 85.345 94.9451C86.5759 96.9291 86.0646 99.5074 84.2563 100.903Z" fill="#FFC3BD"/>
<path d="M94.0992 230.648C97.6457 229.482 100.632 227.085 100.028 222.879C99.7697 221.076 105.553 220.371 105.553 220.371C104.894 226.099 105.613 227.065 106.303 228.385C106.997 229.711 106.951 231.26 105.754 231.403C104.321 231.574 103.999 231.415 102.22 231.652C100.14 231.928 98.7903 233.016 94.6289 233.016C92.3492 233.016 92.9607 231.023 94.0992 230.648Z" fill="#845EC2"/>
<path d="M104.858 169.462C105.269 140.768 102.608 125.129 102.608 125.129L81.3789 126.186C81.3789 126.186 84.5188 152.438 90.0931 171.775C91.5827 182.152 94.9387 199.704 97.2627 211.489C100.934 211.118 104.612 210.485 107.436 209.563C108.261 199.207 108.409 184.228 104.858 169.462Z" fill="#845EC2"/>
<path d="M105.315 223.182C105.315 223.182 106.145 217.76 106.703 209.562C104.286 210.484 101.138 211.117 97.9961 211.489C99.2046 218.649 100.068 223.205 100.068 223.205C101.123 223.719 103.799 223.898 105.315 223.182Z" fill="#FFC3BD"/>
<path d="M96.1162 208.056C96.3061 209.042 96.8168 211.511 97.3258 212.377C97.3869 212.481 97.491 212.55 97.6103 212.565C101.567 213.064 105.523 212.265 107.159 211.551C107.251 211.511 107.32 211.44 107.355 211.347C107.8 210.162 107.962 207.662 108.013 206.61C108.025 206.365 107.807 206.175 107.566 206.222C106.267 206.479 102.314 207.191 96.464 207.613C96.2389 207.628 96.0731 207.834 96.1162 208.056Z" fill="#263238"/>
<path d="M81.6701 92.4453C78.5235 93.03 73.7226 95.6653 73.7226 95.6653C73.7226 95.6653 71.197 101.713 74.221 106.071C77.2024 106.773 78.7178 106.199 78.7178 106.199L81.6701 92.4453Z" fill="#263238"/>
<path opacity="0.2" d="M74.2227 106.072C77.2041 106.775 78.7189 106.201 78.7189 106.201L78.6142 98.0391C76.5735 100.765 74.8913 103.46 74.2227 106.072Z" fill="black"/>
<path opacity="0.2" d="M104.744 152.532C102.37 146.725 99.8165 141.942 98.8365 137.574C97.1677 149.452 98.4781 160.377 104.868 168.206C104.94 162.427 104.879 157.197 104.744 152.532Z" fill="black"/>
<path d="M137.178 198.071L128.705 204.096C121.789 195.086 111.418 181.321 108.909 175.329C102.536 160.125 89.7227 126.623 89.7227 126.623L106.355 122.762C106.355 122.762 116.849 132.506 123.619 169.276C129.304 177.311 134.075 189.161 137.178 198.071Z" fill="#845EC2"/>
<path d="M136.71 226.63C138.823 222.504 138.851 217.953 136.569 214.37C135.59 212.834 140.569 209.809 140.569 209.809C142.33 215.299 143.76 215.619 144.983 216.469C146.243 217.343 146.33 219.154 145.298 219.777C144.063 220.523 143.587 221.01 142.494 222.434C141.217 224.099 140.503 226.424 138.672 227.859C137.5 228.776 135.784 228.438 136.71 226.63Z" fill="#845EC2"/>
<path d="M141.492 212.323C141.492 212.323 140.028 207.184 137.159 199.484C135.336 201.32 132.729 203.194 130.02 204.827C134.071 210.853 137.031 215.182 137.031 215.182C138.831 214.61 140.406 213.601 141.492 212.323Z" fill="#FFC3BD"/>
<path d="M126.892 202.479C127.471 203.299 128.954 205.339 129.775 205.918C129.873 205.988 129.996 206.007 130.111 205.972C133.922 204.796 137.197 202.438 138.393 201.113C138.46 201.039 138.494 200.946 138.487 200.846C138.404 199.584 137.523 197.239 137.135 196.259C137.045 196.031 136.768 195.947 136.568 196.09C135.491 196.859 132.182 199.137 127.025 201.931C126.827 202.04 126.761 202.295 126.892 202.479Z" fill="#263238"/>
<path d="M76.8647 100.826C77.6263 105.78 74.6723 109.622 79.2134 111.908C78.4602 115.673 79.5802 123.202 81.3795 126.187C83.9011 127.557 96.257 125.53 106.355 122.765C106.207 118.455 102.661 109.971 103.646 95.848C103.875 92.5737 101.217 89.8235 97.9364 89.9411C97.06 89.9725 96.1343 90.0257 95.1902 90.1086C91.521 90.4323 88.5189 90.7251 85.3543 91.4571C84.3054 91.6995 83.2263 91.9846 82.1982 92.2752C78.4882 93.3241 76.2784 97.0151 76.8647 100.826Z" fill="#263238"/>
<path d="M84.0039 97.0315C84.0039 97.0315 87.1646 95.8746 88.8261 98.7143C91.5835 97.1648 95.4688 90.6061 95.1899 90.1055C90.5682 91.3722 84.0039 97.0315 84.0039 97.0315Z" fill="white"/>
<path d="M84.0058 97.0321C84.0058 97.0321 81.6023 96.7471 80.9258 98.8706C80.9493 94.6706 83.7571 92.0313 84.9975 91.5391C84.5809 92.6327 84.0058 97.0321 84.0058 97.0321Z" fill="white"/>
<path d="M93.9745 78.9883C93.6239 82.2604 93.5663 87.5277 95.1903 90.1054C95.1903 90.1054 89.0583 94.3272 84.0043 97.0309C82.4178 93.3629 84.996 91.5379 84.996 91.5379C87.3979 90.615 87.3766 87.5428 87.0512 85.1892L93.9745 78.9883Z" fill="#FFC3BD"/>
<path opacity="0.2" d="M87.0508 85.1921L90.9893 81.6641C91.1343 82.1961 91.0727 82.9728 90.8644 83.6431C90.2478 85.5818 88.6249 87.1364 87.1807 87.982C87.2518 87.0546 87.1723 86.0757 87.0508 85.1921Z" fill="black"/>
<path d="M95.2404 72.9018C94.7112 78.2179 94.5981 80.4792 91.8518 83.1112C87.7207 87.0698 81.4341 85.2537 80.3953 79.8861C79.4607 75.0545 80.4833 67.173 85.6812 65.2528C90.803 63.36 95.7701 67.5857 95.2404 72.9018Z" fill="#FFC3BD"/>
<path d="M94.0551 76.7933C92.1416 75.0875 92.4686 72.1375 93.8686 70.7195C95.2686 69.3011 97.2376 72.2332 97.2376 72.2332L94.0551 76.7933Z" fill="#263238"/>
<path d="M87.5866 74.3764C87.5698 74.8104 87.3262 75.1531 87.0423 75.1419C86.7584 75.1307 86.5422 74.7701 86.5596 74.3361C86.5764 73.9021 86.82 73.5594 87.1039 73.5706C87.3873 73.5818 87.6034 73.9424 87.5866 74.3764Z" fill="#263238"/>
<path d="M82.2468 74.2436C82.23 74.6776 81.9864 75.0203 81.7024 75.0091C81.4185 74.9979 81.2024 74.6373 81.2197 74.2033C81.2365 73.7693 81.4801 73.4266 81.764 73.4378C82.0474 73.449 82.2636 73.8102 82.2468 74.2436Z" fill="#263238"/>
<path d="M81.8898 73.466L80.8594 73.125C80.8594 73.125 81.3623 73.96 81.8898 73.466Z" fill="#263238"/>
<path d="M83.5611 74.4141C83.5611 74.4141 82.7518 76.2531 81.9062 77.1228C82.4578 77.68 83.4418 77.4733 83.4418 77.4733L83.5611 74.4141Z" fill="#ED847E"/>
<path d="M85.8725 79.1729C85.6462 79.2037 85.4026 79.2172 85.1422 79.2071C85.0722 79.2043 85.0174 79.145 85.0196 79.0744C85.0224 79.0044 85.0801 78.9501 85.1523 78.9518C87.0552 79.0274 87.9977 77.731 88.0072 77.7181C88.0481 77.6604 88.1276 77.6469 88.1847 77.6873C88.2424 77.7281 88.2558 77.8077 88.215 77.8648C88.1791 77.9163 87.4209 78.9607 85.8725 79.1729Z" fill="#263238"/>
<path d="M96.1308 77.3612C95.6262 78.3681 94.7739 78.9869 93.9798 79.1857C92.7859 79.4847 92.2326 78.1693 92.6011 76.8595C92.9326 75.6807 93.9535 74.1043 95.134 74.3943C96.2977 74.6799 96.7076 76.2099 96.1308 77.3612Z" fill="#FFC3BD"/>
<path d="M92.4861 65.3332C88.266 67.9932 83.7591 69.2997 80.086 69.7667C80.0524 65.9397 87.5598 61.6462 92.4861 65.3332Z" fill="#263238"/>
<path d="M89.6046 65.7983C88.7333 69.1583 97.4133 75.2993 95.7797 81.2448C98.6262 76.8113 96.5733 66.8444 96.5733 66.8444C96.5733 66.8444 89.216 62.2048 89.6046 65.7983Z" fill="#263238"/>
<path d="M88.7052 71.5206C88.6386 71.5094 88.5764 71.4724 88.5356 71.4125C87.896 70.4717 86.9586 70.479 86.9474 70.479C86.8085 70.4806 86.6904 70.3698 86.6876 70.2286C86.6848 70.0881 86.7968 69.9716 86.9379 69.9688C86.9872 69.9682 88.1643 69.9582 88.9572 71.1258C89.0362 71.2422 89.006 71.4007 88.8895 71.4802C88.8335 71.5178 88.7674 71.5306 88.7052 71.5206Z" fill="#263238"/>
<path d="M79.8824 71.3296C79.8191 71.3285 79.7558 71.3033 79.7076 71.2552C79.608 71.1555 79.608 70.9942 79.7071 70.8945C80.7033 69.8966 81.8586 70.1245 81.9073 70.1352C82.0451 70.1643 82.1336 70.2992 82.1044 70.437C82.0759 70.5748 81.9409 70.6627 81.8032 70.6347C81.7578 70.6252 80.8601 70.4611 80.0677 71.2546C80.0173 71.3067 79.9496 71.3313 79.8824 71.3296Z" fill="#263238"/>
<path d="M87.2257 73.5989L86.1953 73.2578C86.1953 73.2578 86.6982 74.0922 87.2257 73.5989Z" fill="#263238"/>
<path opacity="0.2" d="M103.51 98.5765C103.403 101.893 103.544 104.873 103.81 107.527C100.995 104.568 97.4902 98.9869 97.2617 96.1875L103.51 98.5765Z" fill="black"/>
<path d="M121.797 88.0404L122.412 84.4844L127.936 86.6174C127.936 86.6174 126.656 89.9281 124.298 91.3903L123.642 90.9748C122.575 90.2989 121.896 89.2197 121.797 88.0404Z" fill="#FFC3BD"/>
<path d="M125.858 82.5055L127.672 83.4922C128.5 83.9419 128.81 84.9745 128.367 85.8056L127.934 86.6181L122.41 84.4851L123.721 82.9137C124.245 82.2854 125.14 82.1146 125.858 82.5055Z" fill="#FFC3BD"/>
<path d="M102.529 92.1059L103.23 92.8328L103.998 93.6089C104.521 94.1208 105.04 94.6382 105.578 95.1316C106.641 96.1329 107.743 97.0658 108.842 97.9299C109.948 98.7749 111.07 99.5376 112.147 100.112C113.227 100.681 114.25 101.037 114.999 101.131L113.493 101.411C113.123 101.588 113.145 101.666 113.224 101.608C113.307 101.56 113.466 101.427 113.637 101.257C113.986 100.909 114.38 100.414 114.76 99.882C115.52 98.8024 116.295 97.5748 117.019 96.3053C117.761 95.0392 118.478 93.7254 119.197 92.4005L121.355 88.411L121.373 88.378C121.97 87.2753 123.347 86.8648 124.449 87.4612C125.32 87.9322 125.758 88.8937 125.61 89.8183C125.35 91.4305 125.002 92.9548 124.607 94.5066C124.209 96.0505 123.748 97.5827 123.217 99.1205C122.665 100.651 122.079 102.193 121.268 103.761C120.857 104.549 120.409 105.348 119.796 106.203C119.486 106.632 119.13 107.075 118.645 107.547C118.158 108.009 117.551 108.551 116.466 109.02C116.056 109.197 115.629 109.286 115.208 109.296L114.96 109.3C112.482 109.345 110.365 108.727 108.535 107.953C107.618 107.561 106.749 107.131 105.927 106.668C105.113 106.195 104.332 105.699 103.581 105.184C102.081 104.154 100.708 103.028 99.4045 101.852C98.7577 101.258 98.1204 100.66 97.5122 100.029C97.2065 99.7163 96.9024 99.3993 96.6045 99.0723C96.2976 98.7324 96.035 98.4361 95.6805 98.0178C94.0666 96.1121 94.3034 93.2589 96.2091 91.645C98.0358 90.0983 100.733 90.2517 102.375 91.9457L102.529 92.1059Z" fill="#FFC3BD"/>
<path d="M98.1843 89.9453C102.287 90.0708 106.371 94.9993 106.371 94.9993C106.371 94.9993 104.789 101.522 100.292 104.334C97.7637 102.361 95.6183 100.784 95.6183 100.784C92.0377 95.5263 93.2299 92.038 98.1843 89.9453Z" fill="#263238"/>
<path d="M80.5599 125.796C80.8617 127.553 81.2263 128.927 81.3433 129.35C81.3685 129.441 81.4262 129.514 81.5085 129.56C82.1088 129.893 84.8405 131.22 89.8553 130.947C95.485 130.642 103.672 127.597 107.936 124.331C108.064 124.233 108.109 124.061 108.046 123.913C107.686 123.07 107.151 122.203 106.896 121.806C106.81 121.673 106.647 121.614 106.496 121.66C104.661 122.211 93.0966 125.529 80.9144 125.384C80.6932 125.382 80.5224 125.579 80.5599 125.796Z" fill="#845EC2"/>
<path opacity="0.3" d="M80.5599 125.796C80.8617 127.553 81.2263 128.927 81.3433 129.35C81.3685 129.441 81.4262 129.514 81.5085 129.56C82.1088 129.893 84.8405 131.22 89.8553 130.947C95.485 130.642 103.672 127.597 107.936 124.331C108.064 124.233 108.109 124.061 108.046 123.913C107.686 123.07 107.151 122.203 106.896 121.806C106.81 121.673 106.647 121.614 106.496 121.66C104.661 122.211 93.0966 125.529 80.9144 125.384C80.6932 125.382 80.5224 125.579 80.5599 125.796Z" fill="white"/>
<path d="M192.791 216.39H119.062C113.248 216.39 108.771 211.633 109.112 205.82L118.1 52.5706C118.441 46.7566 123.477 42 129.29 42H203.02C208.833 42 213.311 46.7566 212.97 52.57L203.982 205.819C203.641 211.633 198.605 216.39 192.791 216.39Z" fill="#845EC2"/>
<path opacity="0.8" d="M192.791 216.39H119.062C113.248 216.39 108.771 211.633 109.112 205.82L118.1 52.5706C118.441 46.7566 123.477 42 129.29 42H203.02C208.833 42 213.311 46.7566 212.97 52.57L203.982 205.819C203.641 211.633 198.605 216.39 192.791 216.39Z" fill="white"/>
<path d="M192.355 213.324H120.681C116.596 213.324 113.449 209.981 113.689 205.895L122.637 53.3157C122.877 49.2299 126.416 45.8867 130.502 45.8867H202.175C206.261 45.8867 209.408 49.2294 209.169 53.3157L200.22 205.895C199.98 209.981 196.44 213.324 192.355 213.324Z" fill="#845EC2"/>
<path d="M191.582 212.504H119.908C115.823 212.504 112.676 209.16 112.915 205.075L121.864 52.4954C122.104 48.4096 125.642 45.0664 129.729 45.0664H201.402C205.488 45.0664 208.634 48.409 208.395 52.4954L199.446 205.075C199.207 209.16 195.668 212.504 191.582 212.504Z" fill="white"/>
<path opacity="0.1" d="M189.49 206.831H122.666C120.141 206.831 118.196 204.764 118.344 202.239L122.077 138.595C122.225 136.07 124.413 134.004 126.938 134.004H193.761C196.286 134.004 198.231 136.07 198.083 138.595L194.35 202.239C194.203 204.764 192.015 206.831 189.49 206.831Z" fill="#845EC2"/>
<path opacity="0.1" d="M174.643 56.386H155.164C154.26 56.386 153.563 55.6462 153.616 54.7418C153.669 53.8374 154.452 53.0977 155.357 53.0977H174.836C175.74 53.0977 176.437 53.8374 176.383 54.7418C176.33 55.6457 175.547 56.386 174.643 56.386Z" fill="#845EC2"/>
<path opacity="0.1" d="M182.399 117.805C194.396 106.154 195.215 87.5368 184.228 76.2228C173.24 64.9089 154.607 65.1822 142.61 76.8334C130.612 88.4846 129.794 107.101 140.781 118.415C151.769 129.729 170.402 129.456 182.399 117.805Z" fill="#845EC2"/>
<path d="M141.911 116.804C136.971 111.566 134.49 104.607 134.924 97.2109L135.483 97.244C135.058 104.485 137.485 111.295 142.318 116.419L141.911 116.804Z" fill="#845EC2"/>
<path d="M190.079 97.4371L189.52 97.404C189.667 94.9019 189.474 92.4267 188.945 90.0473L189.492 89.9258C190.031 92.3562 190.229 94.8835 190.079 97.4371Z" fill="#845EC2"/>
<path d="M187.333 85.1784C186.186 82.622 184.622 80.284 182.684 78.2294C180.002 75.3851 176.79 73.2583 173.137 71.9081L173.331 71.3828C177.066 72.7632 180.35 74.9371 183.092 77.8452C185.073 79.9452 186.671 82.3359 187.844 84.9494L187.333 85.1784Z" fill="#845EC2"/>
<path d="M179.841 115.17C190.295 105.018 191.008 88.7963 181.434 78.9378C171.86 69.0794 155.624 69.3175 145.17 79.4696C134.717 89.6217 134.003 105.843 143.577 115.702C153.151 125.56 169.387 125.322 179.841 115.17Z" fill="#845EC2"/>
<path d="M159.65 100.798C159.655 100.797 159.661 100.794 159.665 100.793C160.897 100.523 161.472 99.4672 161.734 98.2677C161.761 98.1439 161.785 98.0196 161.806 97.8931C161.812 97.8567 161.817 97.8203 161.823 97.7833C161.897 97.2765 161.928 96.7596 161.936 96.2752C159.601 96.0204 157.643 94.2021 157.533 91.4945C157.45 89.4466 157.917 86.7815 159.029 84.6446C158.805 84.6754 158.542 84.7594 158.273 84.9582C158.228 84.9912 158.175 85.0018 158.124 84.9934C158.077 84.985 158.032 84.9593 158.001 84.9173C157.938 84.831 157.956 84.7095 158.042 84.6457C158.487 84.317 158.925 84.2397 159.251 84.2425C159.33 84.1058 159.409 83.9692 159.494 83.8387C159.139 83.8466 158.792 83.8471 158.456 83.8393C158.826 81.2521 163.802 79.0782 167.197 81.0634C168.706 81.3658 171.202 83.5234 171.202 83.5234C171.202 83.5234 171.3 85.3944 171.086 87.6534V87.654H171.085C170.864 89.9909 170.308 92.7433 168.961 94.2749C169.314 93.4819 169.4 92.6431 169.316 91.7879C168.96 92.1346 168.551 92.3491 168.153 92.4493C167.991 92.8043 167.81 93.1297 167.603 93.4371C167.076 95.8384 166.703 99.0422 167.505 100.879C168.225 100.924 168.928 100.99 169.592 101.067C169.647 101.073 169.7 101.086 169.755 101.095C170.191 100.837 170.616 100.552 171.023 100.234C176.06 96.3111 170.711 91.7157 171.974 87.4983C173.236 83.281 172.168 81.681 168.723 81.5416C170.155 79.2663 161.079 75.623 157.094 82.6986C153.483 89.1106 152.316 92.3093 153.616 97.3247C154.027 98.9123 155.158 100.23 156.702 101.185C156.954 101.117 157.21 101.06 157.476 101.027C158.186 100.937 158.925 100.859 159.65 100.798Z" fill="#263238"/>
<path d="M151.816 110.657C151.571 110.24 151.376 109.853 151.235 109.543C150.854 110.672 150.479 111.803 150.107 112.918C149.765 113.927 149.43 114.935 149.085 115.896L148.567 117.258L148.34 117.795C148.263 117.946 148.34 117.861 148.332 117.901C148.231 118.049 147.884 118.373 147.541 118.668C147.475 118.725 147.401 118.783 147.332 118.84C148.865 119.872 150.527 120.738 152.299 121.399C152.337 118.84 152.654 116.18 152.986 115.468C151.008 114.065 151.314 112.539 151.816 110.657Z" fill="#FFC3BD"/>
<path d="M153.781 103.105C153.732 103.167 153.685 103.234 153.637 103.299C153.684 103.235 153.734 103.172 153.783 103.11L153.781 103.105Z" fill="#263238"/>
<path d="M152.485 106.855C152.483 105.581 152.875 104.384 153.557 103.406C152.137 105.382 150.926 108.778 150.926 108.778C150.926 108.778 151.025 109.078 151.237 109.542C151.378 109.852 151.573 110.239 151.818 110.656C152.117 109.533 152.488 108.282 152.485 106.855Z" fill="#263238"/>
<path d="M172.006 114.979C171.412 114.13 170.796 113.052 170.241 111.914C170.07 112.005 169.9 112.095 169.72 112.173C168.042 110.398 166.607 108.966 166.607 108.966C164.511 104.598 165.807 102.108 169.776 101.098C170.383 101.21 170.966 101.464 171.514 101.797C171.005 101.441 170.41 101.194 169.754 101.093C169.699 101.085 169.646 101.072 169.59 101.065C168.927 100.989 168.224 100.923 167.504 100.878C167.656 101.286 164.063 106.451 161.809 107.302C160.882 104.974 158.291 104.814 158.291 104.814C158.291 104.814 155.873 104.319 155.121 105.841C155.616 102.696 158.645 101.038 159.65 100.797C158.925 100.858 158.187 100.936 157.475 101.025C157.209 101.059 156.953 101.116 156.702 101.184C155.522 101.504 154.515 102.19 153.782 103.109C153.732 103.171 153.683 103.233 153.635 103.298C153.609 103.334 153.581 103.369 153.555 103.405C152.873 104.383 152.481 105.579 152.484 106.854C152.486 108.281 152.116 109.532 151.816 110.656C151.314 112.538 151.009 114.064 152.986 115.467C152.654 116.179 152.337 118.839 152.299 121.398C154.982 122.399 157.909 122.945 160.997 122.945C164.883 122.945 168.615 122.076 172.005 120.528C171.928 118.736 171.902 116.647 172.053 114.273L172.053 114.271C172.037 114.507 172.017 114.75 172.006 114.979Z" fill="#263238"/>
<path d="M158.293 104.816C158.293 104.816 160.885 104.976 161.811 107.304C164.065 106.452 167.658 101.288 167.506 100.879C167.506 100.879 162.407 103.357 158.293 104.816Z" fill="white"/>
<path d="M159.665 100.793C159.661 100.794 159.655 100.796 159.65 100.797C158.645 101.039 155.616 102.696 155.121 105.841C155.873 104.32 158.291 104.816 158.291 104.816C157.516 101.873 159.665 100.793 159.665 100.793Z" fill="white"/>
<path d="M161.805 97.8949C161.811 97.8585 161.816 97.8221 161.822 97.7852C161.816 97.8216 161.811 97.858 161.805 97.8949Z" fill="#FFC3BD"/>
<path d="M167.605 93.4375C167.163 94.0949 166.596 94.6656 165.793 95.2312C165.482 95.4501 165.163 95.6215 164.841 95.7721C164.118 97.0249 162.827 97.922 161.719 98.3638C161.726 98.3325 161.73 98.2994 161.737 98.2675C161.475 99.467 160.899 100.523 159.668 100.793C159.668 100.793 157.518 101.873 158.294 104.816C162.408 103.357 167.507 100.879 167.507 100.879C166.705 99.042 167.078 95.8382 167.605 93.4375Z" fill="#FFC3BD"/>
<path d="M161.734 98.2692C161.761 98.1454 161.785 98.0205 161.806 97.8945C161.785 98.0211 161.761 98.1454 161.734 98.2692Z" fill="#263238"/>
<path opacity="0.2" d="M161.734 98.2692C161.761 98.1454 161.785 98.0205 161.806 97.8945C161.785 98.0211 161.761 98.1454 161.734 98.2692Z" fill="black"/>
<path d="M161.937 96.2734C161.929 96.7578 161.899 97.2753 161.824 97.7815C161.9 97.2736 161.931 96.7567 161.939 96.2734H161.937Z" fill="#263238"/>
<path opacity="0.2" d="M161.937 96.2734C161.929 96.7578 161.899 97.2753 161.824 97.7815C161.9 97.2736 161.931 96.7567 161.939 96.2734H161.937Z" fill="black"/>
<path d="M164.838 95.7734C163.872 96.2254 162.876 96.3794 161.937 96.2769C161.929 96.7596 161.899 97.277 161.822 97.785C161.816 97.8219 161.811 97.8578 161.804 97.8947C161.784 98.0207 161.76 98.1456 161.733 98.2694C161.726 98.3013 161.722 98.3343 161.715 98.3657C162.824 97.9227 164.114 97.0262 164.838 95.7734Z" fill="#FFC3BD"/>
<path opacity="0.2" d="M164.838 95.7734C163.872 96.2254 162.876 96.3794 161.937 96.2769C161.929 96.7596 161.899 97.277 161.822 97.785C161.816 97.8219 161.811 97.8578 161.804 97.8947C161.784 98.0207 161.76 98.1456 161.733 98.2694C161.726 98.3013 161.722 98.3343 161.715 98.3657C162.824 97.9227 164.114 97.0262 164.838 95.7734Z" fill="black"/>
<path d="M164.839 95.7727C165.161 95.622 165.48 95.4507 165.79 95.2317C166.594 94.6661 167.16 94.0955 167.603 93.438C167.809 93.1306 167.991 92.8052 168.152 92.4502C168.047 92.4765 167.941 92.5079 167.839 92.5174C166.905 92.6064 166.639 91.5525 167.067 90.6084C167.197 90.3205 167.393 90.008 167.627 89.7336C167.365 88.92 167.463 88.0424 167.795 87.315C166.941 85.5672 166.04 83.9668 165.958 82.7812C163.679 83.4874 161.451 83.796 159.493 83.8402C159.408 83.9707 159.329 84.1073 159.25 84.244C159.558 84.2468 159.767 84.3201 159.785 84.3263C159.885 84.3638 159.936 84.4758 159.899 84.576C159.861 84.6763 159.75 84.7272 159.65 84.6903C159.629 84.6824 159.377 84.5979 159.029 84.6455C157.916 86.7824 157.45 89.4469 157.533 91.4954C157.643 94.203 159.601 96.0213 161.935 96.2761L161.937 96.2767C162.876 96.3786 163.873 96.2246 164.839 95.7727ZM163.589 84.7732C163.626 84.7782 164.514 84.9053 164.977 85.8747C165.024 85.9716 164.982 86.0875 164.886 86.134C164.839 86.1564 164.788 86.158 164.742 86.1435C164.693 86.1278 164.651 86.0925 164.627 86.0427C164.253 85.2615 163.546 85.1596 163.538 85.1584C163.433 85.1433 163.357 85.047 163.371 84.94C163.385 84.8342 163.483 84.7592 163.589 84.7732ZM163.394 87.5401C163.39 87.5429 163.386 87.5429 163.381 87.5457C163.541 87.6381 163.628 87.8862 163.575 88.1662C163.513 88.491 163.29 88.7212 163.078 88.6803C162.866 88.6394 162.744 88.3432 162.806 88.0184C162.842 87.8313 162.933 87.684 163.043 87.5933C162.8 87.5015 162.657 87.1655 162.657 87.1655L163.394 87.5401ZM158.802 87.3088C158.837 87.1224 158.928 86.9751 159.037 86.8844C158.795 86.7925 158.652 86.4565 158.652 86.4565L159.389 86.8312C159.384 86.834 159.381 86.834 159.376 86.8368C159.536 86.9292 159.623 87.1772 159.57 87.4567C159.508 87.7815 159.285 88.0116 159.073 87.9708C158.861 87.9299 158.74 87.6336 158.802 87.3088ZM160.1 90.0254C160.1 90.0254 159.335 90.0685 158.984 89.5858C159.72 89.0275 160.539 87.7356 160.539 87.7356L160.1 90.0254ZM161.183 91.5262C161.13 91.5161 161.096 91.4652 161.106 91.412C161.116 91.3599 161.165 91.3252 161.22 91.3352C162.644 91.6096 163.501 90.7411 163.51 90.7321C163.547 90.6935 163.609 90.6924 163.647 90.7299C163.686 90.7668 163.687 90.8284 163.65 90.8671C163.617 90.9012 162.927 91.6007 161.736 91.5839C161.562 91.5811 161.378 91.5632 161.183 91.5262Z" fill="#FFC3BD"/>
<path d="M168.571 89.0289C168.337 88.4476 168.069 87.8725 167.795 87.3125C167.462 88.0405 167.364 88.9175 167.627 89.7311C167.901 89.4091 168.229 89.1415 168.571 89.0289Z" fill="#263238"/>
<path d="M163.042 87.5945C162.932 87.6852 162.842 87.8325 162.805 88.0195C162.743 88.3443 162.865 88.6406 163.077 88.6814C163.289 88.7223 163.512 88.4922 163.574 88.1674C163.628 87.8879 163.54 87.6393 163.38 87.5469C163.252 87.6303 163.139 87.632 163.042 87.5945Z" fill="#263238"/>
<path d="M159.57 87.4559C159.624 87.1759 159.536 86.9283 159.376 86.8359C159.248 86.9194 159.135 86.9211 159.037 86.8835C158.928 86.9743 158.837 87.1215 158.801 87.308C158.739 87.6328 158.86 87.9291 159.073 87.9699C159.285 88.0103 159.508 87.7807 159.57 87.4559Z" fill="#263238"/>
<path d="M159.376 86.8373C159.381 86.8345 159.384 86.8345 159.389 86.8317L158.652 86.457C158.652 86.457 158.795 86.793 159.038 86.8849C159.135 86.9224 159.248 86.9207 159.376 86.8373Z" fill="#263238"/>
<path d="M158.984 89.5846C159.336 90.0673 160.1 90.0242 160.1 90.0242L160.54 87.7344C160.54 87.7344 159.721 89.0263 158.984 89.5846Z" fill="#ED847E"/>
<path d="M163.649 90.7304C163.61 90.6934 163.548 90.694 163.511 90.7326C163.502 90.7416 162.645 91.6096 161.221 91.3357C161.167 91.3256 161.117 91.3604 161.107 91.4124C161.097 91.4656 161.131 91.5166 161.184 91.5267C161.379 91.5636 161.564 91.5816 161.738 91.5844C162.928 91.6012 163.618 90.9017 163.651 90.8676C163.688 90.8289 163.687 90.7679 163.649 90.7304Z" fill="#263238"/>
<path d="M168.573 89.0312C168.232 89.1438 167.904 89.4121 167.629 89.7341C167.395 90.0085 167.199 90.3209 167.069 90.6088C166.642 91.5529 166.909 92.6063 167.841 92.5178C167.943 92.5083 168.049 92.4769 168.155 92.4506C168.553 92.3504 168.962 92.1359 169.318 91.7893C169.228 90.877 168.943 89.9463 168.573 89.0312Z" fill="#FFC3BD"/>
<path d="M166.076 81.9415C166.111 81.1335 166.57 80.9391 167.198 81.0651C163.803 79.0799 158.827 81.2539 158.457 83.8411C158.793 83.8489 159.14 83.8484 159.495 83.8405C161.452 83.7963 163.681 83.4877 165.96 82.7815C165.939 82.4719 165.971 82.1896 166.076 81.9415Z" fill="#263238"/>
<path d="M166.076 81.9389C165.97 82.187 165.938 82.4693 165.96 82.7789C166.042 83.9645 166.943 85.5649 167.797 87.3127C168.071 87.8727 168.338 88.4473 168.573 89.0291C168.942 89.9447 169.227 90.8754 169.317 91.7871C169.401 92.6422 169.315 93.4811 168.962 94.2741C170.309 92.7425 170.865 89.9901 171.086 87.6532L171.087 87.6526C171.301 85.3936 171.203 83.5226 171.203 83.5226C171.203 83.5226 168.708 81.3649 167.198 81.0625C166.569 80.9365 166.11 81.1309 166.076 81.9389Z" fill="#263238"/>
<path d="M163.54 85.1565C163.548 85.1576 164.255 85.2595 164.629 86.0407C164.653 86.0906 164.695 86.1259 164.744 86.1415C164.79 86.1561 164.841 86.1544 164.888 86.132C164.984 86.0855 165.025 85.9696 164.979 85.8727C164.515 84.9034 163.628 84.7763 163.591 84.7712C163.485 84.7572 163.387 84.8317 163.373 84.9381C163.359 85.0451 163.435 85.1419 163.54 85.1565Z" fill="#263238"/>
<path d="M159.649 84.6886C159.749 84.7255 159.86 84.6746 159.898 84.5743C159.935 84.4741 159.884 84.3621 159.784 84.3246C159.766 84.3179 159.557 84.2445 159.249 84.2423C158.923 84.2395 158.485 84.3167 158.04 84.6455C157.954 84.7087 157.935 84.8308 157.999 84.9171C158.03 84.9591 158.075 84.9848 158.122 84.9932C158.173 85.0022 158.226 84.991 158.271 84.9579C158.54 84.7591 158.803 84.6751 159.027 84.6443C159.377 84.5962 159.629 84.6807 159.649 84.6886Z" fill="#263238"/>
<path d="M163.042 87.5919C163.14 87.6289 163.252 87.6272 163.38 87.5443C163.385 87.5415 163.389 87.5421 163.393 87.5387L162.656 87.1641C162.656 87.1641 162.799 87.5001 163.042 87.5919Z" fill="#263238"/>
<path d="M172.007 114.979C172.019 114.749 172.038 114.506 172.053 114.271C171.74 113.77 171.417 113.269 171.087 112.766C170.875 112.448 170.657 112.128 170.441 111.809C170.376 111.846 170.308 111.878 170.242 111.913C170.797 113.052 171.413 114.13 172.007 114.979Z" fill="#263238"/>
<path opacity="0.2" d="M172.007 114.979C172.019 114.749 172.038 114.506 172.053 114.271C171.74 113.77 171.417 113.269 171.087 112.766C170.875 112.448 170.657 112.128 170.441 111.809C170.376 111.846 170.308 111.878 170.242 111.913C170.797 113.052 171.413 114.13 172.007 114.979Z" fill="black"/>
<path d="M173.672 119.621L173.654 119.711C175.889 118.503 177.947 116.992 179.769 115.233C179.452 114.288 179.087 113.424 178.695 112.585C178.142 111.38 177.528 110.26 176.883 109.165C176.328 108.203 175.73 107.283 175.119 106.375C174.547 107.545 172.969 110.364 170.441 111.811C170.658 112.131 170.875 112.45 171.088 112.769C171.416 113.271 171.74 113.773 172.054 114.274L172.054 114.275C172.33 114.716 172.598 115.155 172.848 115.592C173.275 116.349 173.68 117.108 173.988 117.806L173.931 118.188C173.856 118.654 173.768 119.134 173.672 119.621Z" fill="#FFC3BD"/>
<path d="M166.607 108.968C166.607 108.968 168.042 110.401 169.72 112.176C169.899 112.098 170.07 112.008 170.241 111.917C170.307 111.882 170.375 111.849 170.44 111.812C172.967 110.364 174.546 107.545 175.118 106.376C175.278 106.047 175.363 105.843 175.363 105.843C175.363 105.843 173.743 103.154 171.514 101.8C170.966 101.468 170.383 101.213 169.776 101.102C165.807 102.111 164.511 104.601 166.607 108.968Z" fill="#263238"/>
<path d="M193.458 52.7958H201.35C201.79 52.7958 202.171 52.4357 202.197 51.9956C202.223 51.5554 201.884 51.1953 201.444 51.1953H193.552C193.112 51.1953 192.73 51.5554 192.705 51.9956C192.679 52.4357 193.018 52.7958 193.458 52.7958Z" fill="#845EC2"/>
<path d="M193.298 55.5419H201.19C201.63 55.5419 202.011 55.1818 202.037 54.7416C202.063 54.3015 201.724 53.9414 201.284 53.9414H193.392C192.952 53.9414 192.57 54.3015 192.544 54.7416C192.518 55.1818 192.857 55.5419 193.298 55.5419Z" fill="#845EC2"/>
<path d="M129.466 55.5419H137.358C137.798 55.5419 138.179 55.1818 138.205 54.7416C138.231 54.3015 137.892 53.9414 137.452 53.9414H129.56C129.119 53.9414 128.739 54.3015 128.712 54.7416C128.687 55.1818 129.025 55.5419 129.466 55.5419Z" fill="#845EC2"/>
<path d="M193.133 58.288H201.026C201.466 58.288 201.847 57.9279 201.873 57.4877C201.899 57.0476 201.56 56.6875 201.12 56.6875H193.228C192.787 56.6875 192.407 57.0476 192.38 57.4877C192.355 57.9279 192.693 58.288 193.133 58.288Z" fill="#845EC2"/>
<path d="M182.767 158.759H135.031C131.229 158.759 128.301 155.648 128.524 151.846C128.747 148.044 132.04 144.934 135.842 144.934H183.578C187.38 144.934 190.308 148.044 190.086 151.846C189.863 155.648 186.569 158.759 182.767 158.759Z" fill="white"/>
<path d="M181.678 177.329H133.941C130.139 177.329 127.211 174.218 127.434 170.417C127.657 166.615 130.95 163.504 134.752 163.504H182.489C186.29 163.504 189.219 166.615 188.996 170.417C188.773 174.218 185.48 177.329 181.678 177.329Z" fill="white"/>
<path d="M180.587 195.899H132.851C129.049 195.899 126.121 192.789 126.344 188.987C126.567 185.185 129.86 182.074 133.662 182.074H181.399C185.201 182.074 188.129 185.185 187.906 188.987C187.682 192.789 184.39 195.899 180.587 195.899Z" fill="white"/>
<path d="M138.744 154.32C140.196 152.91 140.295 150.656 138.965 149.286C137.635 147.917 135.379 147.95 133.927 149.36C132.474 150.771 132.375 153.024 133.705 154.394C135.035 155.764 137.291 155.731 138.744 154.32Z" fill="#845EC2"/>
<path d="M135.908 167.048L136.381 168.822C136.435 169.025 136.616 169.163 136.83 169.163H138.695C139.173 169.163 139.336 169.775 138.933 170.056L137.36 171.152C137.179 171.278 137.094 171.501 137.148 171.704L137.621 173.478C137.742 173.933 137.199 174.311 136.829 174.03L135.384 172.933C135.218 172.807 134.984 172.807 134.804 172.933L133.23 174.03C132.827 174.311 132.329 173.933 132.503 173.478L133.184 171.704C133.262 171.501 133.202 171.278 133.037 171.152L131.592 170.056C131.222 169.775 131.457 169.163 131.935 169.163H133.8C134.014 169.163 134.212 169.025 134.29 168.822L134.97 167.048C135.144 166.593 135.787 166.593 135.908 167.048Z" fill="#845EC2"/>
<path d="M137.217 187.109L136.925 192.09C136.9 192.519 136.532 192.866 136.104 192.866H131.743C131.315 192.866 130.988 192.519 131.013 192.09L131.377 185.885C131.402 185.457 131.77 185.109 132.198 185.109H135.335L137.217 187.109Z" fill="#845EC2"/>
<path d="M135.336 185.109L137.218 187.108H135.994C135.566 187.108 135.239 186.761 135.264 186.333L135.336 185.109ZM134.837 183.734L134.758 185.075L134.686 186.299C134.664 186.667 134.79 187.015 135.038 187.279C135.287 187.543 135.626 187.687 135.994 187.687H137.218H138.558L137.64 186.712L135.758 184.713L134.837 183.734Z" fill="white"/>
<path opacity="0.2" d="M181.158 151.114H145.44C144.821 151.114 144.344 150.608 144.381 149.989C144.417 149.37 144.954 148.863 145.573 148.863H181.29C181.909 148.863 182.386 149.37 182.349 149.989C182.314 150.608 181.777 151.114 181.158 151.114Z" fill="#845EC2"/>
<path opacity="0.2" d="M174.391 154.829H145.226C144.606 154.829 144.13 154.323 144.166 153.704C144.202 153.084 144.739 152.578 145.358 152.578H174.524C175.143 152.578 175.62 153.085 175.583 153.704C175.547 154.323 175.011 154.829 174.391 154.829Z" fill="#845EC2"/>
<path opacity="0.2" d="M179.985 171.148H170.131C169.512 171.148 168.975 171.655 168.939 172.274C168.903 172.893 169.38 173.4 169.999 173.4H179.853C180.473 173.4 181.009 172.893 181.045 172.274C181.081 171.655 180.605 171.148 179.985 171.148Z" fill="#845EC2"/>
<path opacity="0.2" d="M164.371 171.148H144.268C143.648 171.148 143.113 171.655 143.076 172.274C143.04 172.893 143.517 173.4 144.136 173.4H164.239C164.858 173.4 165.394 172.893 165.431 172.274C165.467 171.655 164.991 171.148 164.371 171.148Z" fill="#845EC2"/>
<path opacity="0.2" d="M173.653 167.434H144.487C143.867 167.434 143.331 167.94 143.295 168.559C143.259 169.179 143.736 169.685 144.354 169.685H173.52C174.14 169.685 174.676 169.178 174.712 168.559C174.748 167.94 174.271 167.434 173.653 167.434Z" fill="#845EC2"/>
<path opacity="0.2" d="M178.895 189.719H143.178C142.559 189.719 142.022 190.226 141.986 190.844C141.95 191.464 142.427 191.97 143.046 191.97H178.763C179.383 191.97 179.919 191.463 179.955 190.844C179.991 190.225 179.515 189.719 178.895 189.719Z" fill="#845EC2"/>
<path opacity="0.2" d="M172.563 186.004H143.397C142.777 186.004 142.241 186.511 142.205 187.13C142.169 187.749 142.646 188.255 143.265 188.255H172.431C173.05 188.255 173.586 187.748 173.622 187.13C173.659 186.51 173.181 186.004 172.563 186.004Z" fill="#845EC2"/>
</svg>
