<svg width="67" height="60" viewBox="0 0 67 60" fill="none" xmlns="http://www.w3.org/2000/svg">
<path d="M16.1609 44.9409H0.0859375L4.13623 41.0855L0.0859375 37.2305H8.16038V43.5124L15.8469 44.6776V37.2305H16.1609V44.9409Z" fill="#C4AFF1"/>
<path d="M50.8398 44.9405H66.9144L62.8645 41.0855L66.9144 37.2305H58.8769V43.5826L51.1538 44.6776V37.2305H50.8398V44.9405Z" fill="#C4AFF1"/>
<path d="M54.7157 9.68139L35.8346 0.533911C35.099 0.179213 34.3 0 33.501 0C32.7058 0 31.9068 0.179213 31.1712 0.533911L12.2901 9.68139C10.4419 10.5737 9.26953 12.4443 9.26953 14.4941V38.1581C9.26953 42.6385 11.45 46.8388 15.1127 49.4225L27.3554 58.051C29.1998 59.3503 31.3504 60 33.501 60C35.6554 60 37.806 59.3503 39.6466 58.051L51.8931 49.4225C55.5558 46.8388 57.7325 42.6385 57.7325 38.1581V14.4941C57.7325 12.4443 56.5601 10.5737 54.7157 9.68139ZM54.6448 38.1581C54.6448 41.6266 52.9497 44.8936 50.1121 46.8948L37.8694 55.5271C36.585 56.4306 35.0729 56.9123 33.501 56.9123C31.9292 56.9123 30.4208 56.4306 29.1364 55.5271L16.8937 46.8948C14.0561 44.8936 12.361 41.6266 12.361 38.1581V14.4941C12.361 13.6353 12.8613 12.8363 13.6342 12.4592L32.5153 3.3155C33.1277 3.02054 33.8781 3.02054 34.4867 3.3155L53.3679 12.4592C54.1445 12.8363 54.6448 13.6353 54.6448 14.4941V38.1581Z" fill="#845EC2"/>
<path d="M52.8188 14.4926V32.966H14.1836V14.4926C14.1836 14.3294 14.2818 14.1715 14.4293 14.0995L33.3101 4.95382C33.3679 4.92582 33.4366 4.91016 33.5016 4.91016C33.5666 4.91016 33.6334 4.92582 33.6927 4.95382L52.5735 14.0995C52.7206 14.1715 52.8188 14.3294 52.8188 14.4926Z" fill="#463174"/>
<path d="M52.8192 32.9688V38.1574C52.8192 41.038 51.415 43.7464 49.0609 45.4071L36.8156 54.0382C35.8415 54.7245 34.6952 55.0881 33.5016 55.0881C32.3079 55.0881 31.1617 54.7248 30.1857 54.0382L17.9419 45.4071C15.5878 43.7482 14.1836 41.038 14.1836 38.1574V32.9688H52.8192Z" fill="#845EC2"/>
<path d="M52.9278 13.3637L34.0474 4.2192C33.8779 4.13706 33.6886 4.09375 33.5001 4.09375C33.3115 4.09375 33.1222 4.13706 32.9523 4.2192L14.0719 13.3637C13.6414 13.572 13.3633 14.016 13.3633 14.4939V38.1556C13.3633 41.3012 14.8982 44.2613 17.4696 46.0736L29.7134 54.7047C30.8275 55.4899 32.1369 55.9051 33.5001 55.9051C34.8632 55.9051 36.1726 55.4899 37.2867 54.7047L49.5305 46.074C52.1015 44.2613 53.6368 41.3012 53.6368 38.1556V14.4943C53.6368 14.016 53.3587 13.572 52.9278 13.3637ZM33.5001 55.087C32.3068 55.087 31.1605 54.7238 30.1849 54.036L17.9411 45.4049C15.587 43.746 14.1817 41.0357 14.1817 38.156V14.4943C14.1817 14.3303 14.281 14.172 14.4285 14.1004L33.3089 4.95586C33.3675 4.92749 33.4355 4.91218 33.5001 4.91218C33.5646 4.91218 33.6326 4.92786 33.6908 4.95586L52.5716 14.1007C52.7191 14.172 52.8184 14.3307 52.8184 14.4946V38.156C52.8184 41.0357 51.4131 43.7456 49.059 45.4053L36.8152 54.036C35.8396 54.7234 34.6933 55.087 33.5001 55.087Z" fill="#463174"/>
<path d="M53.3666 12.4604L34.4858 3.31553C33.8758 3.01982 33.1268 3.01982 32.5152 3.31553L13.6344 12.4604C12.8601 12.8356 12.3594 13.6343 12.3594 14.4945V38.1562C12.3594 41.6282 14.0533 44.8951 16.8913 46.8952L29.1351 55.5264C30.4195 56.4318 31.929 56.9104 33.5005 56.9104C35.072 56.9104 36.5819 56.4321 37.8663 55.5264L50.1101 46.8956C52.9477 44.8947 54.642 41.6282 54.642 38.1562V14.4949C54.6416 13.6339 54.1413 12.8356 53.3666 12.4604ZM53.6373 38.1562C53.6373 41.3018 52.1024 44.2619 49.531 46.0746L37.2872 54.7053C36.1731 55.4905 34.8637 55.9057 33.5005 55.9057C32.1373 55.9057 30.828 55.4905 29.7138 54.7053L17.47 46.0742C14.899 44.2623 13.3637 41.3018 13.3637 38.1562V14.4945C13.3637 14.0166 13.6419 13.5727 14.0724 13.3643L32.9528 4.21982C33.1227 4.13768 33.312 4.09437 33.5005 4.09437C33.6891 4.09437 33.8784 4.13768 34.0479 4.21982L52.9286 13.3643C53.3591 13.5727 53.6373 14.0166 53.6373 14.4949V38.1562Z" fill="white"/>
<g opacity="0.4">
<path d="M57.7325 36.8494V45.4406C56.7468 44.8992 55.7163 44.3951 54.6448 43.9247C48.6373 41.2813 41.3567 39.7355 33.5048 39.7355C25.6491 39.7355 18.3685 41.2813 12.361 43.9247C11.2857 44.3951 10.2552 44.9029 9.26953 45.4406V36.8494C10.2552 36.308 11.2895 35.804 12.361 35.3298C18.3685 32.6901 25.6529 31.1406 33.5048 31.1406C41.3529 31.1406 48.6373 32.6901 54.6448 35.3335C55.7163 35.804 56.7468 36.308 57.7325 36.8494Z" fill="black"/>
<path d="M8.45812 45.8945C8.40958 45.9431 8.36104 45.9879 8.3125 46.0364V45.9767C8.36104 45.9505 8.40958 45.9207 8.45812 45.8945Z" fill="black"/>
<path d="M58.6888 45.9767V46.0364C58.6402 45.9879 58.5917 45.9431 58.5469 45.8945C58.5917 45.9207 58.6402 45.9505 58.6888 45.9767Z" fill="black"/>
</g>
<path d="M58.6875 43.3642V34.7708C52.0546 30.8956 43.2114 28.5273 33.5013 28.5273C23.7882 28.5273 14.9454 30.896 8.3125 34.7708V43.3642C8.36104 43.3373 8.4092 43.3078 8.45737 43.2809C15.0742 39.4543 23.858 37.1208 33.5013 37.1208C43.142 37.1208 51.9258 39.4543 58.5426 43.2809C58.5908 43.3078 58.6389 43.3373 58.6875 43.3642Z" fill="#C4AFF1"/>
<path d="M8.45737 43.2812C8.4092 43.3081 8.36066 43.3376 8.3125 43.3645V43.4235C8.36066 43.375 8.4092 43.3294 8.45737 43.2812Z" fill="#C4AFF1"/>
<path d="M58.6878 43.4235V43.3645C58.6397 43.3376 58.5911 43.3081 58.543 43.2812C58.5911 43.3294 58.6393 43.375 58.6878 43.4235Z" fill="#C4AFF1"/>
<path d="M33.5011 47.082L34.1452 48.543L35.7324 48.3705L34.7893 49.6586L35.7324 50.9467L34.1452 50.7742L33.5011 52.2352L32.8571 50.7742L31.2695 50.9467L32.2127 49.6586L31.2695 48.3705L32.8571 48.543L33.5011 47.082Z" fill="white"/>
<path d="M40.4434 44.7266L40.8578 45.6663L41.879 45.5554L41.2723 46.3839L41.879 47.2128L40.8578 47.1019L40.4434 48.0417L40.029 47.1019L39.0078 47.2128L39.6145 46.3839L39.0078 45.5554L40.029 45.6663L40.4434 44.7266Z" fill="white"/>
<path d="M26.5528 44.7266L26.9672 45.6663L27.9884 45.5554L27.3817 46.3839L27.9884 47.2128L26.9672 47.1019L26.5528 48.0417L26.1387 47.1019L25.1172 47.2128L25.7239 46.3839L25.1172 45.5554L26.1387 45.6663L26.5528 44.7266Z" fill="white"/>
<path d="M35.7513 18.6667C35.7513 19.3739 35.4704 20.0522 34.9703 20.5523C34.4702 21.0524 33.7919 21.3333 33.0846 21.3333C32.3774 21.3333 31.6991 21.0524 31.199 20.5523C30.6989 20.0522 30.418 19.3739 30.418 18.6667C30.418 17.9594 30.6989 17.2811 31.199 16.781C31.6991 16.281 32.3774 16 33.0846 16C33.7919 16 34.4702 16.281 34.9703 16.781C35.4704 17.2811 35.7513 17.9594 35.7513 18.6667Z" fill="white"/>
<path fill-rule="evenodd" clip-rule="evenodd" d="M32.8126 26.66C29.257 26.5174 26.418 23.5894 26.418 19.9987C26.418 16.3167 29.4026 13.332 33.0846 13.332C36.7666 13.332 39.7513 16.3167 39.7513 19.9987C39.7513 23.6807 36.7666 26.6654 33.0846 26.6654H32.9933C32.9329 26.6654 32.8726 26.6636 32.8126 26.66ZM28.8066 24.2054C28.7568 24.0622 28.7398 23.9097 28.757 23.7591C28.7742 23.6085 28.825 23.4637 28.9058 23.3355C28.9866 23.2072 29.0953 23.0988 29.2237 23.0183C29.3521 22.9378 29.497 22.8872 29.6476 22.8704C32.2463 22.5827 33.939 22.6087 36.525 22.8764C36.6758 22.8921 36.8211 22.942 36.9497 23.0223C37.0783 23.1027 37.1869 23.2113 37.2672 23.3399C37.3475 23.4686 37.3974 23.6139 37.4131 23.7647C37.4287 23.9155 37.4098 24.068 37.3576 24.2104C38.466 23.089 39.0867 21.5754 39.0846 19.9987C39.0846 16.685 36.3983 13.9987 33.0846 13.9987C29.771 13.9987 27.0846 16.685 27.0846 19.9987C27.0846 21.6374 27.7416 23.1227 28.8066 24.2054Z" fill="white"/>
</svg>
