<svg width="55" height="60" viewBox="0 0 55 60" fill="none" xmlns="http://www.w3.org/2000/svg">
<path d="M41.77 36.9003H55L51.6665 40.0733L55 43.2461H48.3545V38.0759L42.0284 37.1169V43.2461H41.77V36.9003Z" fill="#C4AFF1"/>
<path d="M13.2305 36.9006H0.000722885L3.33391 40.0733L0.000722885 43.2461H6.61576L6.61576 38.0182L12.972 37.1169V43.2461H13.2305L13.2305 36.9006Z" fill="#C4AFF1"/>
<path d="M49.2226 17.1233L42.6913 14.8268C39.9631 13.8676 38.513 13.9979 39.4748 11.2704C39.8127 10.3124 40.1983 9.37076 40.5807 8.50753C41.2762 6.93753 40.2431 5.13828 38.535 4.95757C37.7815 4.87804 36.9142 4.72085 35.9244 4.45127C33.6753 3.83858 31.8667 2.35483 30.5864 0.963668C29.9954 0.321104 29.1963 0 28.3973 0C27.5983 0 26.7993 0.321104 26.2083 0.963668C24.928 2.35483 23.1191 3.83858 20.8703 4.45127C19.8805 4.72085 19.0128 4.87804 18.2597 4.95757C16.5519 5.13828 15.5184 6.93753 16.214 8.50753C16.5963 9.37076 16.982 10.3124 17.3199 11.2704C18.2814 13.9979 16.8316 13.8676 14.1034 14.8268L7.57208 17.1233C7.57208 17.1233 1.92154 43.6297 28.3977 60C54.8728 43.6297 49.2226 17.1233 49.2226 17.1233ZM28.6818 55.3467C28.5956 55.4065 28.4955 55.4363 28.3951 55.4363C28.295 55.4363 28.1954 55.4068 28.1091 55.3471C19.4496 49.3497 13.957 41.4851 11.7837 31.9718C10.6714 27.1016 10.7065 22.8915 10.9313 20.2171C10.9481 20.0203 11.0787 19.8512 11.2654 19.7854L15.3422 18.3517C15.7148 18.2207 16.0606 18.1131 16.3761 18.0149L16.4257 17.9996C17.9375 17.5299 19.8192 16.9456 20.8247 14.9429C21.8537 12.8931 21.0939 10.7365 20.8441 10.0279C20.7239 9.68737 20.5951 9.33902 20.4577 8.98433C20.4051 8.84767 20.4144 8.69534 20.4831 8.56616C20.5522 8.43735 20.6739 8.34475 20.8165 8.31301C21.1578 8.23684 21.5031 8.15097 21.8515 8.0565C24.0637 7.45389 26.1493 6.22962 28.0501 4.41805C28.2443 4.23323 28.5489 4.23323 28.7431 4.41805C30.6439 6.22962 32.7295 7.45389 34.9417 8.05613C35.2901 8.15134 35.6354 8.23684 35.9767 8.31301C36.1197 8.34475 36.2414 8.43735 36.3105 8.56616C36.3795 8.69497 36.3889 8.84767 36.3359 8.98433C36.1988 9.33902 36.0697 9.68699 35.9498 10.0275C35.7 10.7365 34.9402 12.8931 35.9688 14.9429C36.9747 16.9456 38.8557 17.5299 40.3678 17.9996L40.4209 18.0164C40.7356 18.1139 41.0802 18.2214 41.4514 18.3517L45.5341 19.7873C45.7208 19.8526 45.8515 20.0218 45.8683 20.2185C46.4268 26.8029 45.8713 43.4046 28.6818 55.3467Z" fill="#845EC2"/>
<path d="M28.3973 54.3223C20.1153 48.5008 14.8576 40.9073 12.7671 31.7501C11.731 27.2174 11.716 23.2702 11.9065 20.6562H44.899C45.3862 27.2465 44.5809 42.9025 28.3973 54.3223Z" fill="#845EC2"/>
<path d="M44.8988 20.6562H11.9062C11.91 20.6454 11.91 20.6379 11.91 20.6271L15.6776 19.3016C16.0368 19.1769 16.3736 19.0709 16.6775 18.9757L16.7249 18.9611C17.7061 18.6572 19.0058 18.2543 20.13 17.3612C20.7453 16.8743 21.3054 16.2407 21.7262 15.3951C22.9456 12.9641 22.0779 10.5036 21.7922 9.69787C21.7299 9.52202 21.6679 9.3428 21.6018 9.16321C21.774 9.11915 21.9461 9.07546 22.1182 9.02767C24.3588 8.4161 26.4679 7.22245 28.4008 5.46875C30.3304 7.22245 32.4395 8.4161 34.6801 9.02767C34.8522 9.07509 35.0244 9.11915 35.1961 9.16321C35.1304 9.34242 35.068 9.52202 35.0057 9.69787C34.7201 10.5032 33.8524 12.9637 35.0755 15.3951C35.4967 16.2407 36.0567 16.8743 36.6717 17.3612C37.7921 18.2547 39.0918 18.6572 40.073 18.9611L40.1242 18.9794C40.4281 19.0709 40.7611 19.1769 41.1199 19.3016L44.8947 20.6308C44.8954 20.6379 44.8954 20.6491 44.8988 20.6562Z" fill="#463174"/>
<path d="M45.5339 19.7891L41.4511 18.3535C41.08 18.2232 40.7354 18.1157 40.4206 18.0182L40.3676 18.0014C38.8559 17.5317 36.9745 16.9474 35.9686 14.9447C34.9396 12.8949 35.6998 10.7383 35.9496 10.0293C36.0698 9.68881 36.1986 9.34083 36.3356 8.98613C36.3883 8.84947 36.3789 8.69714 36.3102 8.56796C36.2412 8.43915 36.1195 8.34656 35.9765 8.31482C35.6352 8.23866 35.2898 8.15315 34.9415 8.05794C32.7293 7.4557 30.6437 6.23144 28.7429 4.41986C28.5487 4.23505 28.244 4.23505 28.0499 4.41986C26.1491 6.23144 24.0634 7.4557 21.8513 8.05832C21.5029 8.15315 21.1575 8.23866 20.8163 8.31482C20.6737 8.34656 20.5519 8.43915 20.4829 8.56796C20.4138 8.69677 20.4048 8.84947 20.4575 8.98613C20.5945 9.34083 20.7237 9.68881 20.8439 10.0297C21.0937 10.7383 21.8535 12.8949 20.8245 14.9447C19.819 16.9474 17.9376 17.5317 16.4255 18.0014L16.3758 18.0167C16.0603 18.1149 15.7146 18.2225 15.342 18.3535L11.2652 19.7873C11.0785 19.853 10.9478 20.0221 10.931 20.2189C10.7059 22.8933 10.6712 27.1034 11.7834 31.9736C13.9568 41.4869 19.4494 49.3512 28.1089 55.3489C28.1951 55.4087 28.2948 55.4381 28.3949 55.4381C28.4953 55.4381 28.5954 55.4083 28.6816 55.3485C45.8707 43.4064 46.4266 26.8047 45.8681 20.2207C45.8513 20.0236 45.7206 19.8548 45.5339 19.7891ZM12.7628 31.7499C11.7229 27.1978 11.7121 23.2394 11.9063 20.6266L15.6746 19.3011C16.0346 19.1746 16.3691 19.0708 16.6734 18.9759L16.7227 18.9606C18.2367 18.4906 20.5243 17.7797 21.7213 15.3953C22.9422 12.9636 22.0753 10.5042 21.7904 9.69553C21.7284 9.51968 21.6642 9.34195 21.5977 9.16236C21.7695 9.1198 21.9416 9.07462 22.1148 9.02758C24.355 8.4175 26.4661 7.22123 28.3964 5.4694C30.3263 7.22123 32.4377 8.4175 34.6775 9.0272C34.8508 9.07462 35.0232 9.11942 35.1954 9.16236C35.1285 9.34232 35.0643 9.52004 35.0023 9.6959C34.7175 10.5042 33.8505 12.964 35.0714 15.3953C36.2688 17.78 38.556 18.4902 40.0697 18.9606L40.1227 18.977C40.4266 19.0715 40.7596 19.1749 41.1181 19.3011L44.8932 20.6284C45.386 27.2057 44.6008 42.8874 28.3945 54.3229C20.1129 48.4988 14.854 40.9056 12.7628 31.7499Z" fill="white"/>
<g clip-path="url(#clip0_857_14376)">
<path d="M35.375 32.4984L33.85 30.7609L34.0625 28.4609L31.8063 27.9484L30.625 25.9609L28.5 26.8734L26.375 25.9609L25.1937 27.9484L22.9375 28.4547L23.15 30.7547L21.625 32.4984L23.15 34.2359L22.9375 36.5422L25.1937 37.0547L26.375 39.0422L28.5 38.1234L30.625 39.0359L31.8063 37.0484L34.0625 36.5359L33.85 34.2359L35.375 32.4984ZM27.25 35.6234L24.75 33.1234L25.6312 32.2422L27.25 33.8547L31.3687 29.7359L32.25 30.6234L27.25 35.6234Z" fill="white"/>
</g>
<g opacity="0.4">
<path d="M7.55913 47.5633V40.4925C8.37037 40.9381 9.21849 41.3529 10.1004 41.7401C15.0447 43.9157 21.0368 45.1879 27.4991 45.1879C33.9645 45.1879 39.9567 43.9157 44.9009 41.7401C45.7859 41.3529 46.6341 40.935 47.4453 40.4925V47.5633C46.6341 48.0088 45.7829 48.4237 44.9009 48.8139C39.9567 50.9865 33.9614 52.2617 27.4991 52.2617C21.0399 52.2617 15.0447 50.9865 10.1004 48.8109C9.21849 48.4237 8.37037 48.0088 7.55913 47.5633Z" fill="black"/>
<path d="M48.1106 40.1172C48.1506 40.0772 48.1905 40.0404 48.2305 40.0004V40.0496C48.1905 40.0711 48.1506 40.0957 48.1106 40.1172Z" fill="black"/>
<path d="M6.76995 40.0496V40.0004C6.80989 40.0404 6.84984 40.0772 6.88672 40.1172C6.84984 40.0957 6.80989 40.0711 6.76995 40.0496Z" fill="black"/>
</g>
<path d="M6.77068 38.203V45.2756C12.2297 48.4649 19.5078 50.4141 27.4995 50.4141C35.4936 50.4141 42.7715 48.4646 48.2305 45.2756V38.203C48.1905 38.2251 48.1509 38.2494 48.1112 38.2715C42.6655 41.4209 35.4362 43.3415 27.4995 43.3415C19.565 43.3415 12.3357 41.4209 6.88991 38.2715C6.85027 38.2494 6.81063 38.2251 6.77068 38.203Z" fill="#C4AFF1"/>
<path d="M48.1112 38.2695C48.1509 38.2474 48.1908 38.2231 48.2305 38.201V38.1525C48.1908 38.1924 48.1509 38.2299 48.1112 38.2695Z" fill="#C4AFF1"/>
<path d="M6.7714 38.1525V38.201C6.81104 38.2231 6.85098 38.2474 6.89062 38.2695C6.85098 38.2299 6.81134 38.1924 6.7714 38.1525Z" fill="#C4AFF1"/>
<defs>
<clipPath id="clip0_857_14376">
<rect width="15" height="15" fill="white" transform="translate(21 25)"/>
</clipPath>
</defs>
</svg>
