<svg width="63" height="60" viewBox="0 0 63 60" fill="none" xmlns="http://www.w3.org/2000/svg">
<path d="M47.8281 22.8945H62.8178L59.0411 27.5038L62.8178 32.1126H55.3228V24.5187L48.1208 23.2089V32.1126H47.8281V22.8945Z" fill="#C4AFF1"/>
<path d="M15.4896 22.8945H0.5L4.27662 27.5038L0.5 32.1126H8.02899V24.6023L15.1969 23.2089V32.1126H15.4896V22.8945Z" fill="#C4AFF1"/>
<path d="M48.4779 5.69141V22.8944H14.8438V5.69141C20.4293 7.02284 26.0803 7.6964 31.6595 7.6964C37.2414 7.69677 42.8923 7.02284 48.4779 5.69141Z" fill="#463174"/>
<path d="M31.6601 6.65817C25.7321 6.65817 19.7284 5.88755 13.8086 4.36719V40.3193C13.8086 41.2594 14.2637 42.1503 15.0254 42.7006L31.6601 54.7219L48.2948 42.7006C49.0569 42.1499 49.5116 41.2594 49.5116 40.3193V4.36719C43.5919 5.88755 37.5881 6.65817 31.6601 6.65817ZM48.4763 40.3193C48.4763 40.9282 48.1817 41.5051 47.6881 41.8616L31.6597 53.4447L15.6314 41.8616C15.1378 41.5051 14.8432 40.9286 14.8432 40.3193V5.68966C20.4273 7.0196 26.0782 7.69317 31.6594 7.69317C37.2409 7.69317 42.8918 7.0196 48.4759 5.68966V40.3193H48.4763Z" fill="#463174"/>
<path d="M48.4744 22.8945V40.3219C48.4744 40.9305 48.178 41.5066 47.6833 41.865L32.9445 52.5154L31.6556 53.4462L30.3664 52.5154L15.6277 41.865C15.1363 41.507 14.8398 40.9309 14.8398 40.3219V22.8945H48.4744Z" fill="#845EC2"/>
<path d="M50.4382 3.9611C50.4382 3.58213 50.1215 3.34766 49.8281 3.34766C49.7732 3.34766 49.7161 3.3555 49.6578 3.37081C43.6903 4.93709 37.6335 5.73162 31.6566 5.73162C25.6797 5.73162 19.6229 4.93747 13.655 3.37081C13.596 3.3555 13.5407 3.34766 13.4855 3.34766C13.192 3.34766 12.875 3.58213 12.875 3.9611V40.322C12.875 41.5601 13.4743 42.7321 14.4775 43.4576L31.6562 55.8724L48.8353 43.4576C49.8385 42.7325 50.4378 41.5601 50.4378 40.3224V3.9611H50.4382ZM49.5085 40.3224C49.5085 41.2625 49.0533 42.1534 48.2913 42.7037L31.6566 54.7251L15.0219 42.7037C14.2598 42.153 13.8047 41.2625 13.8047 40.3224V4.37032C19.7248 5.89068 25.7282 6.66131 31.6562 6.66131C37.5842 6.66131 43.588 5.89068 49.5077 4.37032V40.3224H49.5085Z" fill="white"/>
<path d="M49.8319 0C49.4967 0 49.155 0.0421903 48.81 0.130305C43.0941 1.63087 37.3782 2.38285 31.6593 2.38285C25.9434 2.38285 20.2242 1.63087 14.5083 0.130305C14.1666 0.0425637 13.825 0 13.4893 0C11.3671 0 9.53125 1.71227 9.53125 3.95809V40.3201C9.53125 42.6376 10.6446 44.8121 12.5193 46.1693L31.6593 60L50.799 46.1693C52.677 44.8121 53.787 42.6376 53.787 40.3201V3.95809C53.7867 1.71227 51.9512 0 49.8319 0ZM50.4405 40.3205C50.4405 41.5575 49.8417 42.7291 48.8392 43.4553L31.659 55.8702L14.4817 43.4553C13.4759 42.7295 12.877 41.5575 12.877 40.3205V3.95845C12.877 3.58098 13.1959 3.34651 13.489 3.34651C13.5442 3.34651 13.5995 3.35285 13.6581 3.36928C19.6245 4.93481 25.6821 5.72936 31.6586 5.72936C37.6347 5.72936 43.6923 4.93518 49.6591 3.36928C49.7177 3.35285 49.7763 3.34651 49.8316 3.34651C50.1247 3.34651 50.4402 3.58098 50.4402 3.95845V40.3205H50.4405Z" fill="#845EC2"/>
<g opacity="0.4">
<path d="M53.7867 27.6992V37.9721C52.7226 38.6946 51.6058 39.3621 50.4405 39.9707C45.0274 42.8188 38.579 44.4724 31.6623 44.4724C24.7389 44.4724 18.2938 42.8188 12.8774 39.9707C11.7121 39.3621 10.5957 38.6946 9.53125 37.9721V27.6992C10.5957 28.4187 11.7121 29.0859 12.8774 29.6978C18.2938 32.5459 24.7389 34.1996 31.6623 34.1996C38.5794 34.1996 45.0274 32.5459 50.4405 29.6978C51.6058 29.0859 52.7226 28.4187 53.7867 27.6992Z" fill="black"/>
<path d="M8.30853 26.8332C8.26298 26.8007 8.21743 26.7649 8.17188 26.7324V26.6641C8.21705 26.7193 8.2626 26.7746 8.30853 26.8332Z" fill="black"/>
<path d="M55.1484 26.6641V26.7324C55.1028 26.7649 55.0573 26.8007 55.0117 26.8332C55.0573 26.7746 55.1028 26.7193 55.1484 26.6641Z" fill="black"/>
</g>
<path d="M55.1469 24.7773V35.0513C48.9617 39.6841 40.7155 42.5161 31.6605 42.5161C22.603 42.5161 14.3571 39.6845 8.17188 35.0513V24.7773C8.21705 24.8095 8.26223 24.8446 8.30703 24.877C14.4773 29.4523 22.6683 32.2421 31.6605 32.2421C40.6505 32.2421 48.8415 29.4519 55.0114 24.877C55.0566 24.8449 55.1017 24.8095 55.1469 24.7773Z" fill="#C4AFF1"/>
<path d="M8.30703 24.8773C8.26186 24.8452 8.21668 24.8097 8.17188 24.7776V24.707C8.21705 24.7649 8.26186 24.8194 8.30703 24.8773Z" fill="#C4AFF1"/>
<path d="M55.1469 24.707V24.7776C55.1017 24.8097 55.0569 24.8448 55.0117 24.8773C55.0565 24.8194 55.1017 24.7649 55.1469 24.707Z" fill="#C4AFF1"/>
<path d="M27.0685 16.1273L27.5005 17.9673L27.0685 19.7993L28.6765 20.7913L29.6605 22.3993L31.5005 21.9673L33.3405 22.3993L34.3245 20.7913L35.9325 19.7993L35.5005 17.9673L35.9325 16.1273L34.3325 15.1353L33.3405 13.5273L31.5005 13.9673L29.6685 13.5353L28.6685 15.1353L27.0685 16.1273ZM31.5085 21.1993C30.6598 21.1993 29.8458 20.8622 29.2457 20.2621C28.6456 19.662 28.3085 18.848 28.3085 17.9993C28.3085 17.1507 28.6456 16.3367 29.2457 15.7366C29.8458 15.1365 30.6598 14.7993 31.5085 14.7993C33.2685 14.7993 34.7005 16.2313 34.7005 17.9913C34.7005 19.7673 33.2685 21.1993 31.5085 21.1993ZM31.4925 20.3993C30.1645 20.3993 29.1005 19.3273 29.1005 17.9993C29.1005 16.6793 30.1645 15.5993 31.4925 15.5993C32.8205 15.5993 33.9005 16.6793 33.9005 17.9993C33.9005 19.3273 32.8205 20.3993 31.4925 20.3993ZM34.5645 21.2793L33.5405 23.0713L31.8765 22.6953L33.9005 27.3593L35.0205 25.5993H37.0205L34.5645 21.2793ZM28.4045 21.3353L29.4045 23.1353L31.1085 22.7273L29.1005 27.3593L27.9805 25.5993H25.9805L28.4045 21.3353Z" fill="white"/>
</svg>
